<svg width="32" height="33" viewBox="0 0 32 33" fill="none" xmlns="http://www.w3.org/2000/svg">
<g clip-path="url(#clip0_37_238)">
<path d="M15.9998 3.16669C8.63984 3.16669 2.6665 9.14002 2.6665 16.5C2.6665 23.86 8.63984 29.8334 15.9998 29.8334C23.3598 29.8334 29.3332 23.86 29.3332 16.5C29.3332 9.14002 23.3598 3.16669 15.9998 3.16669ZM15.9998 7.16669C18.2132 7.16669 19.9998 8.95335 19.9998 11.1667C19.9998 13.38 18.2132 15.1667 15.9998 15.1667C13.7865 15.1667 11.9998 13.38 11.9998 11.1667C11.9998 8.95335 13.7865 7.16669 15.9998 7.16669ZM15.9998 26.1C12.6665 26.1 9.71984 24.3934 7.99984 21.8067C8.03984 19.1534 13.3332 17.7 15.9998 17.7C18.6532 17.7 23.9598 19.1534 23.9998 21.8067C22.2798 24.3934 19.3332 26.1 15.9998 26.1Z" fill="#0A512F" fill-opacity="0.7"/>
</g>
<defs>
<clipPath id="clip0_37_238">
<rect width="32" height="32" fill="white" transform="translate(0 0.5)"/>
</clipPath>
</defs>
</svg>
