<svg width="29" height="23" viewBox="0 0 29 23" fill="none" xmlns="http://www.w3.org/2000/svg">
<path d="M4.22412 22.25V2.63483C4.22398 2.21796 4.38163 1.81285 4.67231 1.48312C4.96299 1.1534 5.37024 0.917747 5.83009 0.813169C6.28995 0.708592 6.77636 0.741016 7.21294 0.905349C7.64952 1.06968 8.01153 1.35661 8.24212 1.72108L20.6228 21.2789C20.8534 21.6434 21.2154 21.9303 21.652 22.0947C22.0885 22.259 22.575 22.2914 23.0348 22.1868C23.4947 22.0823 23.9019 21.8466 24.1926 21.5169C24.4833 21.1872 24.6409 20.782 24.6408 20.3652V0.75" stroke="#0A512F" stroke-opacity="0.7" stroke-width="2" stroke-linecap="round" stroke-linejoin="round"/>
<path d="M0.140625 7.91669H28.724" stroke="#0A512F" stroke-opacity="0.7" stroke-width="2" stroke-linecap="round" stroke-linejoin="round"/>
<path d="M0.140625 15.0833H28.724" stroke="#0A512F" stroke-opacity="0.7" stroke-width="2" stroke-linecap="round" stroke-linejoin="round"/>
</svg>
