<svg width="12" height="15" viewBox="0 0 12 15" fill="none" xmlns="http://www.w3.org/2000/svg">
<path d="M1.83301 14.25V1.9335C1.83295 1.67174 1.8973 1.41737 2.01594 1.21033C2.13459 1.0033 2.30081 0.855329 2.48851 0.789665C2.6762 0.724 2.87474 0.744359 3.05293 0.847544C3.23113 0.95073 3.37889 1.1309 3.47301 1.35975L8.52634 13.6403C8.62046 13.8691 8.76822 14.0493 8.94641 14.1525C9.12461 14.2556 9.32314 14.276 9.51084 14.2103C9.69854 14.1447 9.86476 13.9967 9.9834 13.7897C10.102 13.5826 10.1664 13.3283 10.1663 13.0665V0.75" stroke="#0A512F" stroke-opacity="0.7" stroke-width="2" stroke-linecap="round" stroke-linejoin="round"/>
<path d="M0.166504 5.25H11.8332" stroke="#0A512F" stroke-opacity="0.7" stroke-width="2" stroke-linecap="round" stroke-linejoin="round"/>
<path d="M0.166504 9.75H11.8332" stroke="#0A512F" stroke-opacity="0.7" stroke-width="2" stroke-linecap="round" stroke-linejoin="round"/>
</svg>
