<svg width="15" height="10" viewBox="0 0 15 10" fill="none" xmlns="http://www.w3.org/2000/svg">
<path d="M6.19085 9.01886L0.400186 2.42374C-0.2832 1.64777 0.272202 0.429078 1.30935 0.429078H12.8907C13.1228 0.428879 13.3501 0.495351 13.5452 0.620532C13.7404 0.745713 13.8952 0.924297 13.9912 1.1349C14.0871 1.3455 14.1201 1.57919 14.0862 1.80799C14.0522 2.03678 13.9528 2.25098 13.7999 2.42494L8.00919 9.01766C7.89586 9.14688 7.7561 9.25044 7.59929 9.3214C7.44248 9.39236 7.27225 9.42908 7.10002 9.42908C6.9278 9.42908 6.75756 9.39236 6.60075 9.3214C6.44394 9.25044 6.30418 9.14688 6.19085 9.01766V9.01886Z" fill="#0A512F" fill-opacity="0.7"/>
</svg>
