<svg width="30" height="29" viewBox="0 0 30 29" fill="none" xmlns="http://www.w3.org/2000/svg">
<path d="M30 13.5956C30 21.1043 23.2838 27.1912 15 27.1912C13.5143 27.1933 12.0349 26.9935 10.5994 26.5969C9.50437 27.1718 6.99 28.275 2.76 28.9936C2.385 29.0558 2.1 28.6518 2.24813 28.2905C2.91188 26.6668 3.51188 24.5032 3.69187 22.5299C1.395 20.1409 0 17.0139 0 13.5956C0 6.08695 6.71625 0 15 0C23.2838 0 30 6.08695 30 13.5956ZM9.375 13.5956C9.375 13.0805 9.17746 12.5865 8.82582 12.2223C8.47419 11.858 7.99728 11.6534 7.5 11.6534C7.00272 11.6534 6.5258 11.858 6.17417 12.2223C5.82254 12.5865 5.625 13.0805 5.625 13.5956C5.625 14.1107 5.82254 14.6047 6.17417 14.969C6.5258 15.3332 7.00272 15.5378 7.5 15.5378C7.99728 15.5378 8.47419 15.3332 8.82582 14.969C9.17746 14.6047 9.375 14.1107 9.375 13.5956ZM16.875 13.5956C16.875 13.0805 16.6775 12.5865 16.3258 12.2223C15.9742 11.858 15.4973 11.6534 15 11.6534C14.5027 11.6534 14.0258 11.858 13.6742 12.2223C13.3225 12.5865 13.125 13.0805 13.125 13.5956C13.125 14.1107 13.3225 14.6047 13.6742 14.969C14.0258 15.3332 14.5027 15.5378 15 15.5378C15.4973 15.5378 15.9742 15.3332 16.3258 14.969C16.6775 14.6047 16.875 14.1107 16.875 13.5956ZM22.5 15.5378C22.9973 15.5378 23.4742 15.3332 23.8258 14.969C24.1775 14.6047 24.375 14.1107 24.375 13.5956C24.375 13.0805 24.1775 12.5865 23.8258 12.2223C23.4742 11.858 22.9973 11.6534 22.5 11.6534C22.0027 11.6534 21.5258 11.858 21.1742 12.2223C20.8225 12.5865 20.625 13.0805 20.625 13.5956C20.625 14.1107 20.8225 14.6047 21.1742 14.969C21.5258 15.3332 22.0027 15.5378 22.5 15.5378Z" fill="#0A512F" fill-opacity="0.7"/>
</svg>
