<svg width="44" height="30" viewBox="0 0 44 30" fill="none" xmlns="http://www.w3.org/2000/svg">
<g filter="url(#filter0_d_37_259)">
<path d="M24.2 17.5H23.1V10.625C23.1 10.2797 22.8539 10 22.55 10H21.6164C21.2905 10 20.9722 10.1094 20.7013 10.3148L19.6474 11.1133C19.5873 11.1588 19.5356 11.2173 19.4954 11.2854C19.4552 11.3536 19.4272 11.4301 19.4131 11.5105C19.3989 11.591 19.3988 11.6739 19.4128 11.7544C19.4268 11.8349 19.4547 11.9114 19.4948 11.9797L20.1053 13.0195C20.1453 13.0878 20.1967 13.1465 20.2567 13.1922C20.3167 13.2379 20.384 13.2697 20.4548 13.2858C20.5256 13.3019 20.5986 13.302 20.6694 13.2861C20.7402 13.2701 20.8076 13.2385 20.8677 13.193L20.9 13.1687V17.5H19.8C19.4961 17.5 19.25 17.7797 19.25 18.125V19.375C19.25 19.7203 19.4961 20 19.8 20H24.2C24.5039 20 24.75 19.7203 24.75 19.375V18.125C24.75 17.7797 24.5039 17.5 24.2 17.5ZM41.8 0H2.2C0.985188 0 0 1.11953 0 2.5V27.5C0 28.8805 0.985188 30 2.2 30H41.8C43.0148 30 44 28.8805 44 27.5V2.5C44 1.11953 43.0148 0 41.8 0ZM3.3 26.25V21.25C5.73031 21.25 7.7 23.4883 7.7 26.25H3.3ZM3.3 8.75V3.75H7.7C7.7 6.51172 5.73031 8.75 3.3 8.75ZM22 23.75C18.3549 23.75 15.4 19.832 15.4 15C15.4 10.1672 18.3549 6.25 22 6.25C25.6451 6.25 28.6 10.1672 28.6 15C28.6 19.8336 25.6438 23.75 22 23.75ZM40.7 26.25H36.3C36.3 23.4883 38.2697 21.25 40.7 21.25V26.25ZM40.7 8.75C38.2697 8.75 36.3 6.51172 36.3 3.75H40.7V8.75Z" fill="white"/>
</g>
<defs>
<filter id="filter0_d_37_259" x="-4" y="0" width="52" height="38" filterUnits="userSpaceOnUse" color-interpolation-filters="sRGB">
<feFlood flood-opacity="0" result="BackgroundImageFix"/>
<feColorMatrix in="SourceAlpha" type="matrix" values="0 0 0 0 0 0 0 0 0 0 0 0 0 0 0 0 0 0 127 0" result="hardAlpha"/>
<feOffset dy="4"/>
<feGaussianBlur stdDeviation="2"/>
<feColorMatrix type="matrix" values="0 0 0 0 0 0 0 0 0 0 0 0 0 0 0 0 0 0 0.25 0"/>
<feBlend mode="normal" in2="BackgroundImageFix" result="effect1_dropShadow_37_259"/>
<feBlend mode="normal" in="SourceGraphic" in2="effect1_dropShadow_37_259" result="shape"/>
</filter>
</defs>
</svg>
