<svg width="27" height="29" viewBox="0 0 27 29" fill="none" xmlns="http://www.w3.org/2000/svg">
<path d="M13.5 29C14.523 29 15.5041 28.6181 16.2274 27.9383C16.9508 27.2585 17.3571 26.3366 17.3571 25.3752H9.64286C9.64286 26.3366 10.0492 27.2585 10.7726 27.9383C11.4959 28.6181 12.477 29 13.5 29ZM15.4189 1.99341C15.4458 1.74141 15.4163 1.4869 15.3321 1.24629C15.2479 1.00569 15.111 0.784343 14.9302 0.596521C14.7494 0.408699 14.5287 0.258574 14.2824 0.155829C14.036 0.0530843 13.7695 0 13.5 0C13.2305 0 12.964 0.0530843 12.7176 0.155829C12.4713 0.258574 12.2506 0.408699 12.0698 0.596521C11.889 0.784343 11.7521 1.00569 11.6679 1.24629C11.5837 1.4869 11.5542 1.74141 11.5811 1.99341C9.40124 2.41009 7.44163 3.52192 6.03405 5.14065C4.62647 6.75938 3.85742 8.78552 3.85714 10.876C3.85714 12.866 2.89286 21.7504 0 23.5628H27C24.1071 21.7504 23.1429 12.866 23.1429 10.876C23.1429 6.48998 19.8257 2.82893 15.4189 1.99341Z" fill="#0A512F" fill-opacity="0.7"/>
</svg>
