<svg width="38" height="32" viewBox="0 0 38 32" fill="none" xmlns="http://www.w3.org/2000/svg">
<path d="M6.0835 31.5V3.21767C6.08331 2.61659 6.28279 2.03248 6.65059 1.55706C7.01839 1.08165 7.53368 0.741868 8.11554 0.591081C8.6974 0.440295 9.31286 0.487046 9.86526 0.723991C10.4177 0.960936 10.8757 1.37465 11.1675 1.90017L26.8328 30.0998C27.1246 30.6253 27.5826 31.0391 28.1351 31.276C28.6875 31.513 29.3029 31.5597 29.8848 31.4089C30.4666 31.2581 30.9819 30.9183 31.3497 30.4429C31.7175 29.9675 31.917 29.3834 31.9168 28.7823V0.5" stroke="white" stroke-width="2" stroke-linecap="round" stroke-linejoin="round"/>
<path d="M0.916748 10.8333H37.0834" stroke="white" stroke-width="2" stroke-linecap="round" stroke-linejoin="round"/>
<path d="M0.916748 21.1667H37.0834" stroke="white" stroke-width="2" stroke-linecap="round" stroke-linejoin="round"/>
</svg>
