<svg width="15" height="16" viewBox="0 0 15 16" fill="none" xmlns="http://www.w3.org/2000/svg">
<path fill-rule="evenodd" clip-rule="evenodd" d="M2.8929 12.2525C2.6089 11.8935 2.2639 11.1595 1.6499 10.2685C1.3019 9.76453 0.438897 8.81553 0.181897 8.33353C-0.0411031 7.90753 -0.0171031 7.71653 0.0358969 7.36353C0.129897 6.73553 0.773897 6.24653 1.4609 6.31253C1.9799 6.36153 2.4199 6.70453 2.8159 7.02853C3.0549 7.22353 3.3489 7.60253 3.5259 7.81653C3.6889 8.01253 3.7289 8.09353 3.9029 8.32553C4.1329 8.63253 4.2049 8.78453 4.1169 8.44653C4.0459 7.95053 3.9299 7.10353 3.7619 6.35453C3.6339 5.78653 3.6029 5.69753 3.4809 5.26153C3.3519 4.79753 3.2859 4.47253 3.1649 3.98053C3.0809 3.63253 2.9299 2.92153 2.8889 2.52153C2.8319 1.97453 2.8019 1.08253 3.1529 0.67253C3.4279 0.35153 4.0589 0.25453 4.4499 0.45253C4.9619 0.71153 5.2529 1.45553 5.3859 1.75253C5.6249 2.28653 5.7729 2.90353 5.9019 3.71353C6.0659 4.74453 6.3679 6.17553 6.3779 6.47653C6.4019 6.10753 6.3099 5.33053 6.3739 4.97653C6.4319 4.65553 6.7019 4.28253 7.0399 4.18153C7.3259 4.09653 7.6609 4.06553 7.9559 4.12653C8.2689 4.19053 8.5989 4.41453 8.7219 4.62553C9.0839 5.24953 9.0909 6.52453 9.1059 6.45653C9.1919 6.08053 9.1769 5.22753 9.3899 4.87253C9.5299 4.63853 9.8869 4.42753 10.0769 4.39353C10.3709 4.34153 10.7319 4.32553 11.0409 4.38553C11.2899 4.43453 11.6269 4.73053 11.7179 4.87253C11.9359 5.21653 12.0599 6.18953 12.0969 6.53053C12.1119 6.67153 12.1709 6.13853 12.3899 5.79453C12.7959 5.15553 14.2329 5.03153 14.2879 6.43353C14.3129 7.08753 14.3079 7.05753 14.3079 7.49753C14.3079 8.01453 14.2959 8.32553 14.2679 8.69953C14.2369 9.09953 14.1509 10.0035 14.0259 10.4415C13.9399 10.7425 13.6549 11.4195 13.3739 11.8255C13.3739 11.8255 12.2999 13.0755 12.1829 13.6385C12.0649 14.2005 12.1039 14.2045 12.0809 14.6035C12.0579 15.0015 12.2019 15.5255 12.2019 15.5255C12.2019 15.5255 11.3999 15.6295 10.9679 15.5605C10.5769 15.4975 10.0929 14.7195 9.9679 14.4815C9.7959 14.1535 9.4289 14.2165 9.2859 14.4585C9.0609 14.8415 8.5769 15.5285 8.2349 15.5715C7.5669 15.6555 6.1809 15.6025 5.0959 15.5915C5.0959 15.5915 5.2809 14.5805 4.8689 14.2335C4.5639 13.9745 4.0389 13.4495 3.7249 13.1735L2.8929 12.2525Z" fill="white"/>
<path fill-rule="evenodd" clip-rule="evenodd" d="M2.8929 12.2525C2.6089 11.8935 2.2639 11.1595 1.6499 10.2685C1.3019 9.76453 0.438897 8.81553 0.181897 8.33353C-0.0411031 7.90753 -0.0171031 7.71653 0.0358969 7.36353C0.129897 6.73553 0.773897 6.24653 1.4609 6.31253C1.9799 6.36153 2.4199 6.70453 2.8159 7.02853C3.0549 7.22353 3.3489 7.60253 3.5259 7.81653C3.6889 8.01253 3.7289 8.09353 3.9029 8.32553C4.1329 8.63253 4.2049 8.78453 4.1169 8.44653C4.0459 7.95053 3.9299 7.10353 3.7619 6.35453C3.6339 5.78653 3.6029 5.69753 3.4809 5.26153C3.3519 4.79753 3.2859 4.47253 3.1649 3.98053C3.0809 3.63253 2.9299 2.92153 2.8889 2.52153C2.8319 1.97453 2.8019 1.08253 3.1529 0.67253C3.4279 0.35153 4.0589 0.25453 4.4499 0.45253C4.9619 0.71153 5.2529 1.45553 5.3859 1.75253C5.6249 2.28653 5.7729 2.90353 5.9019 3.71353C6.0659 4.74453 6.3679 6.17553 6.3779 6.47653C6.4019 6.10753 6.3099 5.33053 6.3739 4.97653C6.4319 4.65553 6.7019 4.28253 7.0399 4.18153C7.3259 4.09653 7.6609 4.06553 7.9559 4.12653C8.2689 4.19053 8.5989 4.41453 8.7219 4.62553C9.0839 5.24953 9.0909 6.52453 9.1059 6.45653C9.1919 6.08053 9.1769 5.22753 9.3899 4.87253C9.5299 4.63853 9.8869 4.42753 10.0769 4.39353C10.3709 4.34153 10.7319 4.32553 11.0409 4.38553C11.2899 4.43453 11.6269 4.73053 11.7179 4.87253C11.9359 5.21653 12.0599 6.18953 12.0969 6.53053C12.1119 6.67153 12.1709 6.13853 12.3899 5.79453C12.7959 5.15553 14.2329 5.03153 14.2879 6.43353C14.3129 7.08753 14.3079 7.05753 14.3079 7.49753C14.3079 8.01453 14.2959 8.32553 14.2679 8.69953C14.2369 9.09953 14.1509 10.0035 14.0259 10.4415C13.9399 10.7425 13.6549 11.4195 13.3739 11.8255C13.3739 11.8255 12.2999 13.0755 12.1829 13.6385C12.0649 14.2005 12.1039 14.2045 12.0809 14.6035C12.0579 15.0015 12.2019 15.5255 12.2019 15.5255C12.2019 15.5255 11.3999 15.6295 10.9679 15.5605C10.5769 15.4975 10.0929 14.7195 9.9679 14.4815C9.7959 14.1535 9.4289 14.2165 9.2859 14.4585C9.0609 14.8415 8.5769 15.5285 8.2349 15.5715C7.5669 15.6555 6.1809 15.6025 5.0959 15.5915C5.0959 15.5915 5.2809 14.5805 4.8689 14.2335C4.5639 13.9745 4.0389 13.4495 3.7249 13.1735L2.8929 12.2525V12.2525Z" stroke="black" stroke-width="0.75" stroke-linecap="round" stroke-linejoin="round"/>
<path d="M11.1279 12.607V9.14804" stroke="black" stroke-width="0.75" stroke-linecap="round"/>
<path d="M9.11219 12.6187L9.09619 9.14572" stroke="black" stroke-width="0.75" stroke-linecap="round"/>
<path d="M7.11621 9.17732L7.13721 12.6033" stroke="black" stroke-width="0.75" stroke-linecap="round"/>
</svg>
