<svg width="25" height="20" viewBox="0 0 25 20" fill="none" xmlns="http://www.w3.org/2000/svg">
<path d="M0 17.7192C0 18.8717 0.93316 19.8066 2.08333 19.8066H22.9167C24.0668 19.8066 25 18.8717 25 17.7192V10.0654H0V17.7192ZM8.33333 14.7621C8.33333 14.4751 8.56771 14.2402 8.85417 14.2402H14.7569C15.0434 14.2402 15.2778 14.4751 15.2778 14.7621V16.5016C15.2778 16.7886 15.0434 17.0234 14.7569 17.0234H8.85417C8.56771 17.0234 8.33333 16.7886 8.33333 16.5016V14.7621ZM2.77778 14.7621C2.77778 14.4751 3.01215 14.2402 3.29861 14.2402H6.42361C6.71007 14.2402 6.94444 14.4751 6.94444 14.7621V16.5016C6.94444 16.7886 6.71007 17.0234 6.42361 17.0234H3.29861C3.01215 17.0234 2.77778 16.7886 2.77778 16.5016V14.7621ZM25 2.41162V4.49902H0V2.41162C0 1.2592 0.93316 0.324219 2.08333 0.324219H22.9167C24.0668 0.324219 25 1.2592 25 2.41162Z" fill="white"/>
</svg>
