<svg width="25" height="21" viewBox="0 0 25 21" fill="none" xmlns="http://www.w3.org/2000/svg">
<path d="M20.0043 7.95655L19.684 8.51514C19.5668 8.72217 19.3168 8.80811 19.0941 8.72608C18.6332 8.5542 18.2113 8.30811 17.8402 7.99952C17.6605 7.85108 17.6136 7.58936 17.7308 7.38623L18.0511 6.82764C17.7816 6.51514 17.5707 6.15186 17.4301 5.75733H16.7855C16.5511 5.75733 16.348 5.58936 16.309 5.35499C16.2308 4.88624 16.2269 4.39405 16.309 3.90577C16.348 3.67139 16.5511 3.49952 16.7855 3.49952H17.4301C17.5707 3.10499 17.7816 2.7417 18.0511 2.4292L17.7308 1.87061C17.6136 1.66749 17.6566 1.40577 17.8402 1.25733C18.2113 0.948735 18.6371 0.702641 19.0941 0.530766C19.3168 0.448735 19.5668 0.534673 19.684 0.741704L20.0043 1.3003C20.4144 1.22608 20.8324 1.22608 21.2426 1.3003L21.5629 0.741704C21.6801 0.534673 21.9301 0.448735 22.1527 0.530766C22.6136 0.702641 23.0355 0.948735 23.4066 1.25733C23.5863 1.40577 23.6332 1.66749 23.516 1.87061L23.1957 2.4292C23.4652 2.7417 23.6761 3.10499 23.8168 3.49952H24.4613C24.6957 3.49952 24.8988 3.66748 24.9379 3.90186C25.016 4.37061 25.0199 4.8628 24.9379 5.35108C24.8988 5.58545 24.6957 5.75733 24.4613 5.75733H23.8168C23.6761 6.15186 23.4652 6.51514 23.1957 6.82764L23.516 7.38623C23.6332 7.58936 23.5902 7.85108 23.4066 7.99952C23.0355 8.30811 22.6097 8.5542 22.1527 8.72608C21.9301 8.80811 21.6801 8.72217 21.5629 8.51514L21.2426 7.95655C20.8363 8.03077 20.4144 8.03077 20.0043 7.95655ZM19.5941 5.65967C21.098 6.81592 22.8129 5.10108 21.6566 3.59717C20.1527 2.43702 18.4379 4.15577 19.5941 5.65967ZM15.0902 11.6714L16.4066 12.3276C16.8011 12.5542 16.973 13.0347 16.8168 13.4644C16.4691 14.4097 15.7855 15.2769 15.1527 16.0347C14.8636 16.3823 14.3636 16.4683 13.9691 16.2417L12.8324 15.5855C12.2074 16.1206 11.4808 16.5464 10.6879 16.8237V18.1362C10.6879 18.5894 10.3636 18.98 9.91833 19.0581C8.9574 19.2222 7.94959 19.23 6.95349 19.0581C6.50427 18.98 6.17224 18.5933 6.17224 18.1362V16.8237C5.37927 16.5425 4.65271 16.1206 4.02771 15.5855L2.89099 16.2378C2.50037 16.4644 1.99646 16.3784 1.7074 16.0308C1.07459 15.273 0.406617 14.4058 0.0589605 13.4644C-0.0972895 13.0386 0.0745855 12.5581 0.469117 12.3276L1.7699 11.6714C1.61755 10.855 1.61755 10.0151 1.7699 9.19483L0.469117 8.53467C0.0745855 8.30811 -0.101196 7.82764 0.0589605 7.40186C0.406617 6.45655 1.07459 5.58936 1.7074 4.83155C1.99646 4.48389 2.49646 4.39795 2.89099 4.62452L4.02771 5.28077C4.65271 4.74561 5.37927 4.31983 6.17224 4.04249V2.72608C6.17224 2.27686 6.49255 1.88623 6.93787 1.80811C7.8988 1.64405 8.91052 1.63624 9.90662 1.8042C10.3558 1.88233 10.6879 2.26905 10.6879 2.72608V4.03858C11.4808 4.31983 12.2074 4.7417 12.8324 5.27686L13.9691 4.62061C14.3597 4.39405 14.8636 4.47999 15.1527 4.82764C15.7855 5.58545 16.4496 6.45264 16.7972 7.39795C16.9535 7.82373 16.8011 8.3042 16.4066 8.53467L15.0902 9.19092C15.2426 10.0112 15.2426 10.8511 15.0902 11.6714ZM10.4965 12.4956C12.809 9.4878 9.37537 6.0542 6.36755 8.3667C4.05505 11.3745 7.48865 14.8081 10.4965 12.4956ZM20.0043 19.6323L19.684 20.1909C19.5668 20.398 19.3168 20.4839 19.0941 20.4019C18.6332 20.23 18.2113 19.9839 17.8402 19.6753C17.6605 19.5269 17.6136 19.2651 17.7308 19.062L18.0511 18.5034C17.7816 18.1909 17.5707 17.8276 17.4301 17.4331H16.7855C16.5511 17.4331 16.348 17.2651 16.309 17.0308C16.2308 16.562 16.2269 16.0698 16.309 15.5815C16.348 15.3472 16.5511 15.1753 16.7855 15.1753H17.4301C17.5707 14.7808 17.7816 14.4175 18.0511 14.105L17.7308 13.5464C17.6136 13.3433 17.6566 13.0815 17.8402 12.9331C18.2113 12.6245 18.6371 12.3784 19.0941 12.2065C19.3168 12.1245 19.5668 12.2105 19.684 12.4175L20.0043 12.9761C20.4144 12.9019 20.8324 12.9019 21.2426 12.9761L21.5629 12.4175C21.6801 12.2105 21.9301 12.1245 22.1527 12.2065C22.6136 12.3784 23.0355 12.6245 23.4066 12.9331C23.5863 13.0815 23.6332 13.3433 23.516 13.5464L23.1957 14.105C23.4652 14.4175 23.6761 14.7808 23.8168 15.1753H24.4613C24.6957 15.1753 24.8988 15.3433 24.9379 15.5776C25.016 16.0464 25.0199 16.5386 24.9379 17.0269C24.8988 17.2612 24.6957 17.4331 24.4613 17.4331H23.8168C23.6761 17.8276 23.4652 18.1909 23.1957 18.5034L23.516 19.062C23.6332 19.2651 23.5902 19.5269 23.4066 19.6753C23.0355 19.9839 22.6097 20.23 22.1527 20.4019C21.9301 20.4839 21.6801 20.398 21.5629 20.1909L21.2426 19.6323C20.8363 19.7065 20.4144 19.7065 20.0043 19.6323ZM19.5941 17.3315C21.098 18.4878 22.8129 16.773 21.6566 15.269C20.1527 14.1128 18.4379 15.8276 19.5941 17.3315Z" fill="white"/>
</svg>
