<svg width="25" height="23" viewBox="0 0 25 23" fill="none" xmlns="http://www.w3.org/2000/svg">
<path d="M24.3046 10.4131H23.0242C22.6423 9.54333 22.0867 8.77361 21.4009 8.12999L22.2212 4.84668H20.8324C19.5563 4.84668 18.4278 5.43376 17.664 6.3383C17.3341 6.29047 17.0086 6.23828 16.6657 6.23828H11.1101C7.75076 6.23828 4.95128 8.6301 4.30458 11.8047H2.42958C1.78722 11.8047 1.2794 11.2176 1.40961 10.5522C1.5051 10.0565 1.96951 9.71729 2.47298 9.71729H2.51638C2.65961 9.71729 2.7768 9.59987 2.7768 9.45636V8.58661C2.7768 8.4431 2.65961 8.32568 2.51638 8.32568C1.2794 8.32568 0.176973 9.21283 0.0207229 10.4392C-0.170249 11.9265 0.984265 13.1963 2.42958 13.1963H4.16569C4.16569 15.4663 5.26812 17.4624 6.94347 18.7323V22.2417C6.94347 22.6244 7.25597 22.9375 7.63791 22.9375H10.4157C10.7976 22.9375 11.1101 22.6244 11.1101 22.2417V20.1543H16.6657V22.2417C16.6657 22.6244 16.9782 22.9375 17.3601 22.9375H20.1379C20.5199 22.9375 20.8324 22.6244 20.8324 22.2417V18.7323C21.3445 18.3452 21.8002 17.8886 22.1909 17.3711H24.3046C24.6865 17.3711 24.999 17.058 24.999 16.6753V11.1089C24.999 10.7262 24.6865 10.4131 24.3046 10.4131ZM18.749 13.1963C18.3671 13.1963 18.0546 12.8832 18.0546 12.5005C18.0546 12.1178 18.3671 11.8047 18.749 11.8047C19.131 11.8047 19.4435 12.1178 19.4435 12.5005C19.4435 12.8832 19.131 13.1963 18.749 13.1963ZM11.1101 4.84668H16.6657C16.9001 4.84668 17.1301 4.86407 17.3558 4.88147C17.3558 4.86842 17.3601 4.85973 17.3601 4.84668C17.3601 2.54184 15.4938 0.671875 13.1935 0.671875C10.8931 0.671875 9.0268 2.54184 9.0268 4.84668C9.0268 4.938 9.0485 5.02498 9.05284 5.1163C9.71257 4.9467 10.3983 4.84668 11.1101 4.84668Z" fill="white"/>
</svg>
