<svg width="25" height="23" viewBox="0 0 25 23" fill="none" xmlns="http://www.w3.org/2000/svg">
<path d="M15.625 14.9899C15.625 15.4224 15.2754 15.7727 14.8438 15.7727H10.1562C9.72461 15.7727 9.375 15.4224 9.375 14.9899V12.6416H0V19.6866C0 20.939 1.09375 22.0349 2.34375 22.0349H22.6562C23.9062 22.0349 25 20.939 25 19.6866V12.6416H15.625V14.9899ZM22.6562 4.81384H18.75V2.46552C18.75 1.21307 17.6562 0.117188 16.4062 0.117188H8.59375C7.34375 0.117188 6.25 1.21307 6.25 2.46552V4.81384H2.34375C1.09375 4.81384 0 5.90973 0 7.16217V11.076H25V7.16217C25 5.90973 23.9062 4.81384 22.6562 4.81384ZM15.625 4.81384H9.375V3.24829H15.625V4.81384Z" fill="white"/>
</svg>
