<svg width="25" height="16" viewBox="0 0 25 16" fill="none" xmlns="http://www.w3.org/2000/svg">
<path d="M24.3427 5.04156C22.3193 5.17855 19.4325 7.18246 17.9716 7.83999C16.8349 8.35271 15.8544 8.79498 14.9989 8.79498C14.1161 8.79498 13.9833 8.16093 14.1669 6.76367C14.2099 6.45056 14.6239 3.66388 12.4989 3.78521C11.5185 3.84392 9.98722 4.75585 5.87785 8.7167L7.49894 4.658C8.68644 1.68737 5.42082 -1.27152 2.43253 0.634535L0.288003 2.07876C-0.00105992 2.26271 -0.0869974 2.65018 0.0965963 2.94372L0.768471 4.00047C0.952065 4.29401 1.33878 4.38012 1.63175 4.19225L3.89738 2.66975C4.61613 2.21183 5.48722 2.95155 5.17472 3.73041L1.33878 13.3429C1.07316 14.0043 1.44425 15.0611 2.49894 15.0611C2.82316 15.0611 3.14347 14.9359 3.38175 14.6932C5.03019 13.0415 9.42472 8.79498 11.6318 7.02982C11.5458 8.14527 11.5497 9.33509 12.4364 10.3096C13.0341 10.9672 13.8935 11.2999 14.995 11.2999C16.3857 11.2999 17.6513 10.7284 18.9911 10.1257C20.2802 9.54644 22.8583 7.67561 24.3974 7.55036C24.7294 7.52296 24.9911 7.26465 24.9911 6.93197V5.67561C24.9989 5.31945 24.6982 5.01808 24.3427 5.04156Z" fill="white"/>
</svg>
