<svg width="19" height="26" viewBox="0 0 19 26" fill="none" xmlns="http://www.w3.org/2000/svg">
<path d="M10.9375 7.14774V0.494141H1.17188C0.522461 0.494141 0 1.01762 0 1.6683V24.3688C0 25.0195 0.522461 25.543 1.17188 25.543H17.5781C18.2275 25.543 18.75 25.0195 18.75 24.3688V8.3219H12.1094C11.4648 8.3219 10.9375 7.79353 10.9375 7.14774ZM14.0625 18.6937C14.0625 19.0166 13.7988 19.2808 13.4766 19.2808H5.27344C4.95117 19.2808 4.6875 19.0166 4.6875 18.6937V18.3023C4.6875 17.9794 4.95117 17.7152 5.27344 17.7152H13.4766C13.7988 17.7152 14.0625 17.9794 14.0625 18.3023V18.6937ZM14.0625 15.5626C14.0625 15.8855 13.7988 16.1497 13.4766 16.1497H5.27344C4.95117 16.1497 4.6875 15.8855 4.6875 15.5626V15.1712C4.6875 14.8483 4.95117 14.5841 5.27344 14.5841H13.4766C13.7988 14.5841 14.0625 14.8483 14.0625 15.1712V15.5626ZM14.0625 12.0401V12.4315C14.0625 12.7544 13.7988 13.0186 13.4766 13.0186H5.27344C4.95117 13.0186 4.6875 12.7544 4.6875 12.4315V12.0401C4.6875 11.7172 4.95117 11.453 5.27344 11.453H13.4766C13.7988 11.453 14.0625 11.7172 14.0625 12.0401ZM18.75 6.45791V6.75635H12.5V0.494141H12.7979C13.1104 0.494141 13.4082 0.616449 13.6279 0.836605L18.4082 5.63111C18.6279 5.85126 18.75 6.1497 18.75 6.45791Z" fill="white"/>
</svg>
