<svg width="25" height="21" viewBox="0 0 25 21" fill="none" xmlns="http://www.w3.org/2000/svg">
<path d="M23.8477 15.2004C23.9492 14.6485 23.9492 14.0849 23.8477 13.533L24.8555 12.9499C24.9727 12.8833 25.0234 12.7464 24.9844 12.6172C24.7227 11.7718 24.2734 11.0047 23.6875 10.3706C23.5977 10.2728 23.4531 10.2493 23.3359 10.3158L22.3281 10.899C21.9023 10.535 21.4141 10.2532 20.8867 10.0653V8.89901C20.8867 8.76594 20.793 8.64852 20.6641 8.62112C19.793 8.42543 18.9063 8.43326 18.0781 8.62112C17.9492 8.64852 17.8555 8.76594 17.8555 8.89901V10.0653C17.3281 10.2532 16.8398 10.535 16.4141 10.899L15.4063 10.3158C15.293 10.2493 15.1445 10.2728 15.0547 10.3706C14.4688 11.0047 14.0195 11.7718 13.7578 12.6172C13.7188 12.7464 13.7734 12.8833 13.8867 12.9499L14.8945 13.533C14.793 14.0849 14.793 14.6485 14.8945 15.2004L13.8867 15.7835C13.7695 15.8501 13.7188 15.987 13.7578 16.1162C14.0195 16.9616 14.4688 17.7248 15.0547 18.3628C15.1445 18.4606 15.2891 18.4841 15.4063 18.4176L16.4141 17.8344C16.8398 18.1984 17.3281 18.4802 17.8555 18.6681V19.8344C17.8555 19.9675 17.9492 20.0849 18.0781 20.1123C18.9492 20.308 19.8359 20.3001 20.6641 20.1123C20.793 20.0849 20.8867 19.9675 20.8867 19.8344V18.6681C21.4141 18.4802 21.9023 18.1984 22.3281 17.8344L23.3359 18.4176C23.4492 18.4841 23.5977 18.4606 23.6875 18.3628C24.2734 17.7287 24.7227 16.9616 24.9844 16.1162C25.0234 15.987 24.9688 15.8501 24.8555 15.7835L23.8477 15.2004ZM19.375 16.2649C18.3281 16.2649 17.4805 15.4117 17.4805 14.3667C17.4805 13.3217 18.332 12.4685 19.375 12.4685C20.418 12.4685 21.2695 13.3217 21.2695 14.3667C21.2695 15.4117 20.4219 16.2649 19.375 16.2649ZM8.75 10.6094C11.5117 10.6094 13.75 8.36672 13.75 5.59961C13.75 2.8325 11.5117 0.589844 8.75 0.589844C5.98828 0.589844 3.75 2.8325 3.75 5.59961C3.75 8.36672 5.98828 10.6094 8.75 10.6094ZM16.6094 19.4743C16.5195 19.4273 16.4297 19.3726 16.3438 19.3217L16.0352 19.5017C15.8008 19.6348 15.5352 19.7091 15.2695 19.7091C14.8438 19.7091 14.4336 19.5291 14.1406 19.216C13.4258 18.441 12.8789 17.4978 12.5703 16.4919C12.3555 15.7992 12.6445 15.0673 13.2695 14.7033L13.5781 14.5233C13.5742 14.4215 13.5742 14.3197 13.5781 14.218L13.2695 14.0379C12.6445 13.6779 12.3555 12.942 12.5703 12.2493C12.6055 12.1358 12.6563 12.0223 12.6953 11.9088C12.5469 11.897 12.4023 11.8618 12.25 11.8618H11.5977C10.7305 12.261 9.76563 12.488 8.75 12.488C7.73438 12.488 6.77344 12.261 5.90235 11.8618H5.25C2.35156 11.8618 0 14.218 0 17.1221V18.7502C0 19.7874 0.839844 20.6289 1.875 20.6289H15.625C16.0195 20.6289 16.3867 20.5037 16.6875 20.2962C16.6406 20.1475 16.6094 19.9949 16.6094 19.8344V19.4743Z" fill="white"/>
</svg>
