<svg width="25" height="20" viewBox="0 0 25 20" fill="none" xmlns="http://www.w3.org/2000/svg">
<path d="M24.2676 10.7061L16.0645 18.9092C15.332 19.6417 14.0625 19.129 14.0625 18.0792V13.3917H7.42188C6.77246 13.3917 6.25 12.8692 6.25 12.2198V7.53229C6.25 6.88287 6.77246 6.36041 7.42188 6.36041H14.0625V1.67291C14.0625 0.627992 15.3271 0.110413 16.0645 0.842835L24.2676 9.04596C24.7217 9.50494 24.7217 10.2471 24.2676 10.7061ZM9.375 18.6651V16.712C9.375 16.3897 9.11133 16.126 8.78906 16.126H4.6875C3.82324 16.126 3.125 15.4278 3.125 14.5635V5.18854C3.125 4.32428 3.82324 3.62604 4.6875 3.62604H8.78906C9.11133 3.62604 9.375 3.36237 9.375 3.0401V1.08698C9.375 0.76471 9.11133 0.501039 8.78906 0.501039H4.6875C2.09961 0.501039 0 2.60065 0 5.18854V14.5635C0 17.1514 2.09961 19.251 4.6875 19.251H8.78906C9.11133 19.251 9.375 18.9874 9.375 18.6651Z" fill="white"/>
</svg>
