<svg width="25" height="24" viewBox="0 0 25 24" fill="none" xmlns="http://www.w3.org/2000/svg">
<path d="M24.6737 8.65819L18.4236 14.5718C17.7648 15.1952 16.6667 14.733 16.6667 13.8131V10.6836C10.3917 10.7258 7.74453 12.2106 9.51497 18.1353C9.70955 18.7864 8.95742 19.2906 8.42964 18.8889C6.73837 17.6017 5.20833 15.1396 5.20833 12.6543C5.20833 6.39484 10.3125 5.1527 16.6667 5.11739V1.98564C16.6667 1.06483 17.7655 0.604127 18.4236 1.22687L24.6737 7.14065C25.1086 7.55217 25.1089 8.24632 24.6737 8.65819ZM16.6667 17.4288V20.4238H2.77778V6.50782H4.98767C5.05781 6.50777 5.12721 6.49353 5.19172 6.46593C5.25622 6.43833 5.31449 6.39795 5.36302 6.34722C6.01202 5.67021 6.7622 5.13435 7.57717 4.70878C8.06024 4.45651 7.88125 3.72462 7.3365 3.72462H2.08333C0.932726 3.72462 0 4.65916 0 5.81202V21.1196C0 22.2725 0.932726 23.207 2.08333 23.207H17.3611C18.5117 23.207 19.4444 22.2725 19.4444 21.1196V17.2577C19.4444 16.8973 19.0887 16.646 18.7495 16.7662C18.274 16.9347 17.7648 16.9851 17.2656 16.913C16.9501 16.8675 16.6667 17.1093 16.6667 17.4288Z" fill="white"/>
</svg>
